OpenSim_Sub01_CSStiffKnee_RCS.mot
version=1
nRows=82
nColumns=11
inDegrees=no
endheader
time	Top_Thigh	Med_Thigh	Bot_Thigh	Top_Shank	2nd_Top_Shank	2nd_Bot_Shank	Bot_Shank	BNOx	BNOy	BNOZ
26.90000000	1291.33347603	1239.96439421	1157.66529134	960.99325076	1060.02876011	940.08041752	921.03829690	19.56983628	-68.96201368	141.61691173
26.91000000	1291.19277625	1239.96585333	1156.86168826	960.98833511	1060.02800797	940.09820517	921.05926981	20.05443555	-68.71066267	141.22772639
26.92000000	1291.21273101	1239.97462540	1156.09563807	960.98553992	1060.02128859	940.09649470	921.06918926	20.44979510	-68.46349775	140.63249572
26.93000000	1291.41755007	1239.98656411	1155.46342979	960.98722604	1060.01169263	940.07187306	921.05885290	20.80914458	-68.21483739	139.91550629
26.94000000	1291.83144324	1239.99752318	1155.06135245	960.99575434	1060.00231076	940.02092722	921.01905843	21.18571363	-67.95900008	139.16104470
26.95000000	1292.47384355	1240.00369484	1154.97629808	961.01302327	1059.99600344	939.94077123	920.94167905	21.62888324	-67.69071623	138.44796773
26.96000000	1293.31487088	1240.00476626	1155.19814747	961.03615766	1059.99325463	939.83396071	920.82969165	22.14830218	-67.40896878	137.79907686
26.97000000	1294.29555294	1240.00248641	1155.65955000	961.05946617	1059.99314628	939.70626148	920.69262365	22.73017937	-67.11524942	137.20410397
26.98000000	1295.35654144	1239.99863094	1156.29241534	961.07722105	1059.99474222	939.56348087	920.54008715	23.36042076	-66.81108230	136.65235351
26.99000000	1296.43848810	1239.99497548	1157.02865316	961.08369454	1059.99710628	939.41142622	920.38169423	24.02493231	-66.49799154	136.13312992
27	1297.48204462	1239.99329566	1157.80017314	961.07315891	1059.99930229	939.25590484	920.22705699	24.70961997	-66.17750127	135.63573767
27.01000000	1298.42786271	1239.99536712	1158.53888496	961.03988640	1060.00039408	939.10272406	920.08578753	25.40038971	-65.85113563	135.14948120
27.02000000	1299.21694828	1240.00293844	1159.17706254	960.97820661	1059.99943065	938.95765210	919.96744169	26.08322877	-65.52041423	134.66371333
27.03000000	1299.81771118	1240.01566580	1159.67516252	960.88688482	1059.99431380	938.82343071	919.87722476	26.75041410	-65.18650783	134.17152832
27.04000000	1300.24501289	1240.02965857	1160.04141318	960.77220524	1059.98100070	938.69767162	919.81296741	27.40488413	-64.84999583	133.67236250
27.05000000	1300.51821443	1240.04068256	1160.28867022	960.64118033	1059.95526018	938.57748963	919.77178603	28.05061002	-64.51140035	133.16626652
27.06000000	1300.65667680	1240.04450359	1160.42978933	960.50082261	1059.91286105	938.45999954	919.75079697	28.69156292	-64.17124350	132.65329100
27.07000000	1300.67976103	1240.03688747	1160.47762621	960.35814456	1059.84957214	938.34231615	919.74711659	29.33171397	-63.83004742	132.13348661
27.08000000	1300.60682814	1240.01360002	1160.44503656	960.22015868	1059.76116227	938.22155426	919.75786125	29.97503435	-63.48833420	131.60690397
27.09000000	1300.45723914	1239.97040704	1160.34487606	960.09387745	1059.64340025	938.09482867	919.78014731	30.62549520	-63.14662599	131.07359374
27.10000000	1300.25035505	1239.90307435	1160.19000041	959.98631338	1059.49205491	937.95925418	919.81109114	31.28706768	-62.80544489	130.53360656
27.11000000	1300.00553689	1239.80736776	1159.99326531	959.90447895	1059.30289506	937.81194560	919.84780910	31.96372293	-62.46531302	129.98699307
27.12000000	1299.74214567	1239.67905309	1159.76752645	959.85538666	1059.07168952	937.65001771	919.88741754	32.65943213	-62.12675251	129.43380391
27.13000000	1299.47954242	1239.51389614	1159.52563953	959.84604899	1058.79420712	937.47058533	919.92703283	33.37816641	-61.79028547	128.87408972
27.14000000	1299.23708815	1239.30766274	1159.28046025	959.88347845	1058.46621667	937.27076325	919.96377133	34.12389694	-61.45643402	128.30790116
27.15000000	1299.03414388	1239.05611869	1159.04484429	959.97468753	1058.08348699	937.04766628	919.99474940	34.90059486	-61.12572028	127.73528885
27.16000000	1298.88777485	1238.76092443	1158.83292992	960.12275922	1057.64318896	936.79933429	920.01741346	35.71134722	-60.79837404	127.15639266
27.17000000	1298.79807899	1238.46730530	1158.66833430	960.30173513	1057.15285555	936.53064407	920.03164933	36.55270675	-60.47246464	126.57201173
27.18000000	1298.75754948	1238.24001254	1158.57892309	960.47264039	1056.62466406	936.24953675	920.03843615	37.41829755	-60.14509310	125.98324070
27.19000000	1298.75864360	1238.14388952	1158.59258198	960.59643877	1056.07081367	935.96396788	920.03875822	38.30172988	-59.81335585	125.39117561
27.20000000	1298.79381864	1238.24377961	1158.73719667	960.63409400	1055.50350358	935.68189305	920.03359983	39.19661401	-59.47434934	124.79691249
27.21000000	1298.85553190	1238.60452616	1159.04065284	960.54656985	1054.93493300	935.41126782	920.02394530	40.09656019	-59.12517000	124.20154739
27.22000000	1298.93624066	1239.29097253	1159.53083619	960.29483007	1054.37730112	935.16004776	920.01077892	40.99517871	-58.76291429	123.60617634
27.23000000	1299.02659012	1240.36524027	1160.23384888	959.83944721	1053.84258993	934.93586691	919.99510294	41.88620968	-58.38467950	123.01181197
27.24000000	1298.97702304	1241.67886370	1161.03779991	959.11072793	1053.32597648	934.72148283	919.97930817	42.77344068	-57.98762880	122.41301332
27.25000000	1298.40032927	1242.72641709	1161.59689039	957.98767602	1052.79415220	934.45748562	919.96813908	43.67769042	-57.56903699	121.79340012
27.26000000	1296.88627838	1242.96789771	1161.54266382	956.34432581	1052.21104930	934.08038087	919.96656816	44.62142733	-57.12618971	121.13553249
27.27000000	1294.02463992	1241.86330282	1160.50666374	954.05471162	1051.54059997	933.52667415	919.97956789	45.62711983	-56.65637258	120.42197054
27.28000000	1289.40950792	1238.87741470	1158.12374663	950.99444381	1050.74702875	932.73342235	920.01187024	46.71710448	-56.15687051	119.63541970
27.29000000	1282.96956158	1233.84523471	1154.28509377	947.16107101	1049.81717959	931.68033874	920.04959893	47.90351461	-55.62491076	118.76982852
27.30000000	1275.20062527	1227.22931124	1149.31637479	942.75883562	1048.77623791	930.41944210	920.04733544	49.18118840	-55.05762298	117.83820341
27.31000000	1266.65346002	1219.55298024	1143.58534617	938.01200152	1047.65310307	929.00975510	919.95660586	50.54328872	-54.45212734	116.85539685
27.32000000	1257.87882688	1211.33957761	1137.45976436	933.14483258	1046.47667444	927.51030040	919.72893632	51.98297845	-53.80554402	115.83626132
27.33000000	1249.42748687	1203.11243929	1131.30738584	928.38159266	1045.27585139	925.98010069	919.31585293	53.49342046	-53.11499320	114.79564928
27.34000000	1241.85020104	1195.39490121	1125.49596708	923.94654565	1044.07953330	924.47817862	918.66888180	55.06777762	-52.37759506	113.74841320
27.35000000	1235.69773043	1188.71029929	1120.39326453	920.06395541	1042.91661952	923.06355687	917.73954905	56.69921281	-51.59046978	112.70940555
27.36000000	1231.52083606	1183.58196946	1116.36703468	916.95808581	1041.81600942	921.79525811	916.47938078	58.38088890	-50.75073754	111.69347880
27.37000000	1229.87027899	1180.53324764	1113.78503398	914.85320073	1040.80660239	920.73230501	914.83990311	60.10596877	-49.85551850	110.71548543
27.38000000	1231.29656240	1180.08727105	1113.01489008	913.97349401	1039.91730147	919.93370205	912.77268148	61.86761466	-48.90193430	109.79027367
27.39000000	1236.00803231	1182.50348518	1114.25328033	914.45025208	1039.18190983	919.43431059	910.28147587	63.65814452	-47.88901075	108.92706871
27.40000000	1243.19636127	1187.25781143	1117.18892651	916.13869944	1038.64879056	919.19725404	907.52513516	65.46736773	-46.82143179	108.11838768
27.41000000	1251.86525452	1193.68130966	1121.41663724	918.84302106	1038.36899869	919.17239258	904.69118181	67.28462980	-45.70492745	107.35365864
27.42000000	1261.01841731	1201.10503973	1126.53122117	922.36740187	1038.39358923	919.30958635	901.96713825	69.09927629	-44.54522776	106.62230962
27.43000000	1269.65955491	1208.86006149	1132.12748690	926.51602681	1038.77361720	919.55869552	899.54052693	70.90065274	-43.34806275	105.91376870
27.44000000	1276.79237255	1216.27743482	1137.80024308	931.09308082	1039.56013762	919.86958027	897.59887031	72.67810468	-42.11916247	105.21746391
27.45000000	1281.48092632	1222.71661461	1143.15877471	935.90459020	1040.79820874	920.19494122	896.31933282	74.41827391	-40.86635553	104.52425652
27.46000000	1283.69229930	1227.96192967	1148.02897657	940.78413314	1042.44315942	920.52998106	895.72409248	76.06734594	-39.62887186	103.84645262
27.47000000	1284.08872660	1232.12477759	1152.40349008	945.58649734	1044.38124465	920.90262056	895.71601846	77.54036302	-38.47011415	103.21286662
27.48000000	1283.35032501	1235.32496930	1156.27924593	950.16701611	1046.49694258	921.34162215	896.19491091	78.75156624	-37.45410690	102.65273757
27.49000000	1282.15721136	1237.68231575	1159.65317481	954.38102274	1048.67473138	921.87574825	897.06056993	79.61519672	-36.64487461	102.19530452
27.50000000	1281.18950247	1239.31662786	1162.52220745	958.08385052	1050.79908923	922.53376129	898.21279568	80.04549557	-36.10644177	101.86980653
27.51000000	1281.11610043	1240.34758148	1164.88348280	961.13315001	1052.75582978	923.34342699	899.55187905	79.95940490	-35.90183666	101.70441228
27.52000000	1282.16993592	1240.88960038	1166.74223612	963.47665484	1054.48268374	924.29376505	900.99719017	79.37886812	-36.05535901	101.68568058
27.53000000	1284.01759726	1241.05028574	1168.11422005	965.17911979	1055.98482391	925.32346269	902.49288371	78.46222901	-36.54099884	101.74611742
27.54000000	1286.28782317	1240.93678277	1169.01589011	966.31312033	1057.27193039	926.36784331	903.98477074	77.37694723	-37.32938387	101.81461641
27.55000000	1288.60935235	1240.65623668	1169.46370184	966.95123195	1058.35368324	927.36223031	905.41866232	76.29048245	-38.39114185	101.82007112
27.56000000	1290.61092354	1240.31579268	1169.47411076	967.16603015	1059.23976254	928.24194712	906.74036953	75.37029431	-39.69690051	101.69137513
27.57000000	1291.92127543	1240.02259598	1169.06357240	967.03009041	1059.93984837	928.94231712	907.89570342	74.78384249	-41.21728756	101.35742205
27.58000000	1292.24016489	1239.86570079	1168.25800548	966.61447256	1060.46361139	929.41148661	908.83986960	74.62611839	-42.92411017	100.78654850
27.59000000	1291.65147023	1239.83631106	1167.13451309	965.98203866	1060.82067120	929.66695799	909.57888667	74.60014870	-44.79555469	100.16043000
27.60000000	1290.36834421	1239.89269968	1165.78742419	965.19289183	1061.02063028	929.74957515	910.13587412	74.27704603	-46.81195435	99.73254031
27.61000000	1288.60403701	1239.99311471	1164.31108071	964.30713310	1061.07309105	929.70019960	910.53396430	73.22782357	-48.95364401	99.75640732
27.62000000	1286.57179881	1240.09580419	1162.79982462	963.38486352	1060.98765597	929.55969281	910.79628961	71.02349454	-51.20095855	100.48555891
27.63000000	1284.48487978	1240.15901620	1161.34799784	962.48618412	1060.77392747	929.36891629	910.94598242	67.23507214	-53.53423282	102.17352296
27.64000000	1282.55653012	1240.14099878	1160.04994232	961.67119593	1060.44150800	929.16873152	911.00617509	61.43356955	-55.93380168	105.07382737
27.65000000	1281.00000000	1240.00000000	1159.00000000	961.00000000	1060.00000000	929.00000000	911	53.19000000	-58.38000000	109.44000000
27.66000000	1279.97930597	1239.71575382	1158.27214580	960.51709403	1059.46572100	928.89454554	910.94696365	42.53529718	-60.84795478	115.28647832
27.67000000	1279.46153009	1239.35393784	1157.85888654	960.20456240	1058.88184891	928.84804118	910.85206901	31.34007686	-63.29196164	121.67133805
27.68000000	1279.36452078	1239.00171554	1157.73236199	960.02888614	1058.29827672	928.84712230	910.71669317	21.93487529	-65.66110833	127.41356451
27.69000000	1279.60612648	1238.74625042	1157.86471195	959.95654631	1057.76489742	928.87842427	910.54221323	16.65022875	-67.90448261	131.33214299
27.70000000	1280.10419559	1238.67470599	1158.22807621	959.95402392	1057.33160401	928.92858246	910.33000628	17.81667348	-69.97117223	132.24605880
27.71000000	1280.77657656	1238.87424572	1158.79459455	959.98780004	1057.04828948	928.98423222	910.08144942	27.76474577	-71.81026496	128.97429725
